<svg xmlns="http://www.w3.org/2000/svg" viewBox="0 0 1600 900">
  <!-- a06 part b (2.9 s), under YES: the crowd turns its back and walks away -->
  <style>
    .line{stroke:#1f1f1f;stroke-width:2.6;stroke-linecap:round;stroke-linejoin:round}
    .detail{stroke:#1f1f1f;stroke-width:1.5;stroke-linecap:round;stroke-linejoin:round}
    .hatch{stroke:#1f1f1f;stroke-width:0.9;stroke-linecap:round;stroke-linejoin:round;opacity:.75}
    .line:not([fill]),.detail:not([fill]),.hatch:not([fill]){fill:none}
  </style>
  <path class="line" fill="#ffffff" d="M 250 424 C 251.7 423.5 256.9 420.5 260 421 C 263.1 421.5 266.3 423.8 268.4 427 C 270.5 430.2 271.4 435.5 272.6 440 C 273.8 444.5 273.9 449.7 275.6 454 C 277.3 458.3 281 461.3 282.6 466 C 284.2 470.7 285.2 476 285 482 C 284.8 488 282.5 495 281.6 502 C 280.7 509 279.4 515.7 279.4 524 C 279.4 532.3 280.6 542.3 281.4 552 C 282.2 561.7 283.7 572 284.4 582 C 285.1 592 285.3 602.6 285.6 612 C 285.9 621.4 286.3 634.2 286.4 638.6 C 285.3 638.9 282 640 280 640.4 C 278 640.8 275.5 640.7 274.6 640.8 C 274.9 641 275.7 641.5 276.4 642.2 C 277.1 642.9 278.6 644.7 279 645.2 C 278.6 646.1 277.8 649.5 276.6 650.6 C 275.4 651.7 272.6 651.4 271.8 651.6 C 271.4 651.3 269.5 651 269.2 649.6 C 268.9 648.2 269.9 644.7 269.8 643.2 C 269.7 641.7 269 641 268.8 640.6 C 267.5 640.7 263.6 641.4 261 641.4 C 258.4 641.4 255.7 640.4 253 640.4 C 250.3 640.4 247.4 641.2 245 641.2 C 242.6 641.2 239.5 640.5 238.4 640.4 C 238.4 641 238.3 642.6 238.6 644 C 238.9 645.4 239.8 647.8 240 648.6 C 239.7 649.2 238.3 651.4 238 652 C 235.9 652 227.7 652 225.6 652 C 225.7 651.5 225.5 650.2 226.4 649 C 227.3 647.8 230.2 646.5 231.2 645 C 232.2 643.5 232.2 641 232.4 640.2 C 231.2 640 227.2 639.6 225 639 C 222.8 638.4 220.3 637 219.4 636.6 C 219.7 632.2 220.4 619.1 221 610 C 221.6 600.9 222.3 591.3 223 582 C 223.7 572.7 224.6 563 225.4 554 C 226.2 545 227.8 536 227.6 528 C 227.4 520 225.3 513.3 224.4 506 C 223.5 498.7 221.6 490.7 222 484 C 222.4 477.3 224.2 470.8 226.6 466 C 229 461.2 233.8 458.3 236.4 455 C 239 451.7 241.2 449.5 242.4 446 C 243.6 442.5 242.1 437.7 243.4 434 C 244.7 430.3 248.9 425.7 250 424 Z"/>
  <path class="detail" d="M 242.4 446 C 243.8 447 247.7 450.6 251 452 C 254.3 453.4 257.9 454.3 262 454.6 C 266.1 454.9 273.3 454.1 275.6 454"/>
  <path class="detail" d="M 221.8 484 C 223.8 487 229.3 497 234 502 C 238.7 507 244 511 250 514 C 256 517 264.8 520 270 520 C 275.2 520 279.2 515 281 514"/>
  <path class="hatch" d="M 221.3 484.3 L 222.6 486.3 L 224.3 489.2 L 226.4 492.6 L 228.7 496.1 L 231.1 499.5 L 233.6 502.4 L 236 504.9 L 238.5 507.1 L 241.2 509.2 L 243.9 511.2 L 246.8 512.9 L 249.7 514.5 L 253 516 L 256.5 517.5 L 260.1 518.7 L 263.7 519.7 L 267.1 520.4 L 270 520.6 L 272.6 520.2 L 275 519.2 L 277.1 517.9 L 278.9 516.5 L 280.3 515.3 L 281.4 514.5 M 220.3 485 L 221.6 487 L 223.3 489.8 L 225.4 493.2 L 227.7 496.8 L 230.2 500.2 L 232.7 503.2 L 235.2 505.7 L 237.7 508 L 240.4 510.2 L 243.2 512.2 L 246.2 514 L 249.2 515.6 L 252.5 517.1 L 256.1 518.6 L 259.8 519.8 L 263.4 520.9 L 266.9 521.5 L 270 521.8 L 273 521.4 L 275.6 520.3 L 277.8 518.8 L 279.6 517.4 L 281 516.2 L 282.1 515.5 M 219.3 485.6 L 220.5 487.6 L 222.3 490.5 L 224.4 493.9 L 226.7 497.5 L 229.2 501 L 231.8 504 L 234.3 506.6 L 237 509 L 239.7 511.1 L 242.6 513.2 L 245.6 515 L 248.7 516.7 L 252 518.2 L 255.7 519.7 L 259.4 521 L 263.2 522 L 266.7 522.7 L 270.1 523 L 273.3 522.5 L 276.1 521.3 L 278.5 519.8 L 280.4 518.3 L 281.8 517.1 L 282.8 516.4 M 279.9 461.4 L 284.9 481.6 M 268.2 426.9 L 283.8 489.3 M 264.7 425.3 L 282.5 496.6 M 261.8 425.9 L 281.5 504.8 M 260.8 434.5 L 280.7 514.2 M 261.6 449.9 L 278 515.7 M 268.4 489.7 L 275.3 517.1 M 269.2 505.4 L 272.5 518.6 M 276.6 518.4 L 280.2 535.4 M 273.7 520 L 282.2 560.2 M 270.7 521.6 L 284.6 586.8 M 269.7 532.1 L 285.3 605.7 M 269.3 545.7 L 286 624 M 268.9 559.3 L 285.8 638.8 M 268.5 572.8 L 282.7 639.6 M 268.2 586.4 L 279.6 640.4 M 268.5 603.2 L 276.4 640.6 M 269.2 622.3 L 273.2 640.8 M 238 502 C 238.3 508.7 240.2 527 240 542 C 239.8 557 237.7 576 237 592 C 236.3 608 236.2 630.3 236 638 M 258 516 C 258.3 523.7 260 546 260 562 C 260 578 258.2 599 258 612 C 257.8 625 258.8 635.3 259 640 M 232 466 C 233 468.7 236 477.3 238 482 C 240 486.7 243 492 244 494 M 254 456 C 254.7 459.3 256.3 470 258 476 C 259.7 482 263 489.3 264 492"/>
  <path class="hatch" d="M 234.1 649.1 L 269.9 649.1 M 218.2 651.3 L 285.8 651.3 M 214.1 653.5 L 289.9 653.5 M 218.6 655.7 L 285.4 655.7 M 235.9 657.9 L 268.1 657.9"/>
  <path class="line" fill="#ffffff" d="M 349.3 433.3 C 350.3 431.5 352.6 424.6 355.6 422.7 C 358.6 420.7 363.9 420.5 367.3 421.6 C 370.7 422.7 374.4 426.2 376.2 429 C 378 431.8 378 437 378.3 438.6 C 378.7 438.7 380 438.2 380.4 439.2 C 380.9 440.1 381.4 442.7 381.1 444.3 C 380.8 445.8 379.1 447.8 378.7 448.5 C 378.7 449.2 378.3 450.9 378.5 452.3 C 378.7 453.8 380.2 455.7 380 457.2 C 379.8 458.7 377.9 460.6 377.5 461.2 C 379 461.4 383.8 461 386.8 462.3 C 389.8 463.6 393.9 467.8 395.3 468.9 C 395.6 470.9 397.2 475.8 397.2 481 C 397.2 486.2 396.3 493.3 395.3 500 C 394.2 506.8 392 514.5 390.8 521.2 C 389.6 528 388.2 533.3 388.1 540.3 C 388 547.4 389.4 555.5 390.2 563.6 C 391 571.8 392.1 580.2 392.7 589.1 C 393.4 597.9 393.8 604.8 394.2 616.6 C 394.6 628.5 395.1 652.9 395.3 660.1 C 394.2 660.6 390.8 662.3 388.7 662.9 C 386.6 663.4 383.8 663.2 382.8 663.3 C 383.1 663.6 384 664.1 384.9 665 C 385.7 665.8 387.4 667.8 387.9 668.4 C 387.4 669.4 386.7 673.1 385.3 674.3 C 384 675.5 380.7 675.4 379.8 675.6 C 379.3 675.2 377.2 674.8 376.8 673.2 C 376.5 671.7 377.5 667.7 377.5 666 C 377.4 664.3 376.6 663.6 376.4 663.1 C 375.1 663.2 371.1 664 368.4 663.9 C 365.6 663.9 362.7 662.9 359.9 662.9 C 357.1 662.8 354.2 663.7 351.4 663.7 C 348.6 663.7 344.7 663 343.3 662.9 C 343.4 663.6 343.2 665.5 343.6 667.1 C 343.9 668.7 345 671.3 345.3 672.2 C 344.9 672.8 343.3 675.4 342.9 676 C 340.4 676 330.6 676 328.1 676 C 328.2 675.4 327.9 673.9 328.9 672.6 C 330 671.3 333.3 669.8 334.4 668.2 C 335.6 666.5 335.5 663.6 335.7 662.6 C 334.2 662.4 329.4 661.9 326.4 661.2 C 323.4 660.4 319.3 658.7 317.9 658.2 C 318.2 654.1 319 641.9 319.6 633.6 C 320.2 625.3 320.6 616.6 321.3 608.2 C 322 599.7 323 591.2 323.8 582.7 C 324.7 574.2 326.1 565.1 326.4 557.3 C 326.7 549.5 326 543.1 325.5 536.1 C 325 529 324 521.9 323.4 514.9 C 322.9 507.8 322.1 500 322.1 493.7 C 322.1 487.3 322.2 481.2 323.4 476.7 C 324.6 472.2 326.5 469.3 329.1 466.5 C 331.8 463.8 335.9 461.8 339.3 460.4 C 342.8 459 348.1 458.6 349.9 458.3 C 349.3 456.3 346.4 450.6 346.3 446.4 C 346.2 442.2 348.8 435.5 349.3 433.3 Z"/>
  <path class="detail" d="M 378.5 441.3 C 378.7 441.8 379.4 443.6 379.4 444.5 C 379.3 445.4 378.5 446.3 378.3 446.6"/>
  <path class="detail" d="M 339.3 460.4 C 340.6 464.5 344.1 477.2 347.2 485.2 C 350.2 493.2 353.5 501.5 357.8 508.5 C 362 515.6 367.4 521.9 372.6 527.6 C 377.8 533.3 386.4 540 389.1 542.4"/>
  <path class="detail" d="M 322.6 601.8 C 326 603.1 335.6 608.7 342.9 609.9 C 350.2 611 357.7 609.8 366.2 608.8 C 374.8 607.8 389.4 604.7 394 603.9"/>
  <path class="detail" d="M 324.3 514.9 C 325.3 511.7 329 502.2 330.2 495.8 C 331.4 489.4 331.4 479.9 331.7 476.7"/>
  <path class="hatch" d="M 322.3 602.4 L 324.4 603.4 L 327.4 604.9 L 331 606.5 L 334.9 608.2 L 338.9 609.6 L 342.8 610.6 L 346.5 611 L 350.3 611 L 354.2 610.8 L 358.1 610.5 L 362.1 610 L 366.3 609.5 L 371 608.8 L 376.3 608 L 381.7 607 L 386.8 606 L 391.1 605.2 L 394.1 604.6 M 321.7 603.7 L 323.8 604.7 L 326.8 606.1 L 330.4 607.8 L 334.4 609.5 L 338.5 611 L 342.6 611.9 L 346.5 612.4 L 350.3 612.4 L 354.3 612.2 L 358.2 611.9 L 362.3 611.4 L 366.5 610.9 L 371.3 610.2 L 376.6 609.4 L 382 608.4 L 387 607.4 L 391.3 606.6 L 394.4 606 M 321.1 605 L 323.2 606 L 326.2 607.4 L 329.8 609.1 L 333.9 610.8 L 338.1 612.3 L 342.3 613.3 L 346.4 613.8 L 350.4 613.9 L 354.4 613.7 L 358.4 613.3 L 362.5 612.8 L 366.7 612.3 L 371.5 611.6 L 376.8 610.8 L 382.2 609.8 L 387.3 608.8 L 391.6 608 L 394.7 607.4 M 364.4 421.9 L 369.7 423.6 M 358.5 422.4 L 374.5 427.6 M 355 423.7 L 376.6 430.7 M 353.8 425.8 L 377.2 433.4 M 352.5 427.8 L 377.8 436 M 351.3 429.9 L 378.2 438.6 M 350.1 431.9 L 375.5 440.2 M 349.1 434.1 L 366.2 439.6 M 348.7 436.4 L 363.2 441.1 M 348.2 438.7 L 353.3 440.3 M 366.5 454.9 L 367.2 460.2 M 363.7 453.2 L 364.6 459.9 M 360.9 451.8 L 362 459.6 M 358.1 450.4 L 359.4 459.3 M 355.4 449 L 356.8 459 M 352.6 447.2 L 354.2 458.7 M 349.7 445.5 L 351.6 458.5 M 347 444.3 L 348.2 452.5 M 347.2 443.9 C 348.6 443.3 352.8 440.7 355.6 440.3 C 358.5 439.8 361.5 441.6 364.1 441.3 C 366.8 441 369.4 439.7 371.5 438.6 C 373.7 437.4 376 435 376.8 434.3 M 387 540.5 L 389.5 550.7 M 382.8 536.8 L 390.7 568.3 M 378.6 533 L 392.8 590.1 M 374.4 529.2 L 393 604 M 373.3 538.1 L 389.8 604.4 M 374.5 556 L 386.7 604.8 M 375.3 572.4 L 383.5 605.2 M 376 588.5 L 380.3 605.6 M 393 467.1 L 397.1 481.5 M 388.5 463.6 L 396.2 490.6 M 384.5 462.1 L 395.3 499.7 M 380.9 461.7 L 393.8 506.9 M 377.4 461.8 L 392.3 514 M 374.1 462.6 L 390.9 521.1 M 370.8 463.4 L 387.4 521.2 M 376.4 495.5 L 383.8 521.2 M 375.8 505.4 L 380.3 521.2 M 375.1 515.4 L 376.8 521.2 M 392.3 604.2 L 394.2 612.8 M 389 604.9 L 394.6 631 M 385.7 605.6 L 395 649.5 M 382.4 606.2 L 393.9 660.7 M 379 606.9 L 390.8 662 M 375.7 607.5 L 387.5 662.9 M 372.6 609.2 L 384 663 M 372.6 625.5 L 380.6 663.1 M 373.5 646 L 377.1 663.2 M 334.4 517 C 335.5 522.3 340.4 538.2 340.8 548.8 C 341.2 559.4 337.3 575.3 336.6 580.6 M 359.9 517 C 360.6 524.1 363.8 547 364.1 559.4 C 364.5 571.8 362.4 585.9 362 591.2 M 338.7 662.2 C 338.9 657.5 339.8 642.6 339.7 633.6 C 339.6 624.6 338.3 612.4 338 608.2 M 370.5 663.7 C 370.7 658.7 371.5 642.8 371.5 633.6 C 371.6 624.4 371 612.8 370.9 608.6"/>
  <path class="hatch" d="M 336.2 672.8 L 375 672.8 M 318.6 675 L 392.7 675 M 313.5 677.2 L 397.7 677.2 M 316.6 679.4 L 394.7 679.4 M 329.7 681.6 L 381.6 681.6"/>
  <path class="line" fill="#ffffff" d="M 469.5 419.8 C 471.6 419.7 478.7 418.6 481.8 419.3 C 484.9 420.1 486.7 422.6 488.1 424.2 C 489.5 425.9 490 428.3 490.4 429.2 C 491.1 430 493.6 432.8 494.8 434.3 C 496.1 435.9 497.4 437.4 497.7 438.6 C 498.1 439.7 496.4 440 496.8 441.3 C 497.3 442.5 499.3 444.4 500.7 446 C 502 447.5 504.2 449.7 504.9 450.4 C 504.2 450.7 501.9 451.9 500.9 452.2 C 499.9 452.6 498.9 452.2 499.1 452.7 C 499.2 453.1 501.1 454.2 501.8 454.9 C 502.4 455.7 502.7 456.8 502.9 457.2 C 502.3 457.4 499.7 458.5 499.1 458.7 C 499.6 459.1 501.6 460 502.4 461.2 C 503.3 462.4 503.8 464 504.2 465.7 C 504.7 467.4 505.3 469.3 504.9 471.3 C 504.5 473.2 502.5 476.3 502 477.3 C 503.8 478.1 509.7 480.2 512.5 482 C 515.4 483.8 518.1 487.1 519.2 488.1 C 519.4 486.3 520.1 481 520.4 477.3 C 520.6 473.6 520.7 467.8 520.8 465.9 C 520.6 465.4 519.6 464.4 519.2 462.8 C 518.9 461.1 518.2 458.1 518.6 456 C 518.9 454 521 451.2 521.5 450.2 C 522.6 450 526.5 448.5 528.2 448.7 C 530 448.8 531.4 450.9 532 451.3 C 532.2 452.5 533.4 455.9 533.1 458.3 C 532.9 460.7 530.9 464.4 530.4 465.7 C 530.5 468.3 531 475.9 530.7 481.4 C 530.3 486.8 528.8 495.7 528.4 498.6 C 527.4 499.6 525 504.1 522.4 504.4 C 519.7 504.8 515.3 502.3 512.5 500.8 C 509.7 499.4 506.7 496.6 505.6 495.7 C 505.5 497.2 505.4 500.4 504.9 504.9 C 504.4 509.4 503.5 515.7 502.4 522.8 C 501.4 529.9 499.2 541.3 498.4 547.4 C 497.6 553.6 497.3 554.2 497.7 559.8 C 498.2 565.4 500.2 574.1 501.3 581 C 502.5 587.9 503.7 594.5 504.7 601.2 C 505.7 607.9 506.3 615.8 507.2 621.4 C 508 627 509.2 632.6 509.6 634.8 C 509.5 637.4 508.9 644.9 508.9 650.5 C 509 656.1 509.6 662.5 510.1 668.4 C 510.5 674.3 511.4 682.8 511.6 685.6 C 510.4 686 506.5 687.4 504.2 687.9 C 502 688.3 499 688.3 498 688.3 C 498.5 688.4 500.1 688.4 501.3 689 C 502.6 689.6 504.7 691.4 505.4 691.9 C 504.7 693.3 503.3 698.6 501.6 700.2 C 499.8 701.8 496 701.3 494.8 701.6 C 494.3 701.1 491.9 700.6 491.5 698.9 C 491.1 697.1 492.4 693 492.4 691.2 C 492.3 689.5 491.4 688.6 491.2 688.1 C 489.9 688.3 485.8 689.5 483 689.5 C 480.1 689.4 477 687.9 474 687.9 C 471 687.9 468 689.3 465 689.2 C 462.1 689.2 459 687.7 456.1 687.4 C 453.2 687.2 449 687.8 447.6 687.9 C 447.7 688.7 447.8 690.9 448.2 692.6 C 448.7 694.3 449.7 697.1 450 698 C 449.6 698.6 448 701.3 447.6 702 C 444.9 702 434.1 702 431.4 702 C 431.6 701.4 431.4 699.8 432.6 698.4 C 433.8 697 437.3 695.4 438.6 693.7 C 439.9 692 439.9 689 440.2 688.1 C 438.6 687.8 434 687 430.8 686.1 C 427.5 685.2 422.4 683.1 420.7 682.5 C 421 678.7 422.1 667 422.7 659.4 C 423.3 651.9 423.5 645.3 424.3 637 C 425.1 628.8 426.5 618.7 427.6 610.2 C 428.7 601.6 430.2 589.6 430.8 585.5 C 430.4 583.3 429.1 576.7 428.3 572.1 C 427.6 567.4 426.2 563.1 426.3 557.5 C 426.4 551.9 428.5 541.7 429 538.5 C 429.2 534.7 430.1 523.2 430.5 516.1 C 431 509 431 501.3 431.9 495.9 C 432.7 490.6 433.6 487.3 435.7 484 C 437.8 480.8 443 477.5 444.4 476.2 C 445.8 476.4 451.3 477.1 452.7 477.3 C 452.3 475.6 450.1 471.5 450 466.8 C 449.9 462.1 450.7 455 452 448.9 C 453.4 442.7 455 434.7 457.9 429.8 C 460.8 425 467.6 421.4 469.5 419.8 Z"/>
  <path class="detail" d="M 490.4 429.2 C 489.6 429.8 487.4 431 485.9 433 C 484.3 435 482.5 437.9 481.2 441.3 C 479.9 444.7 479 449.4 478 453.4 C 477.1 457.3 476.5 461.8 475.6 465 C 474.6 468.3 474.2 471.2 472.4 472.8 C 470.7 474.5 466.3 474.7 465 475.1"/>
  <path class="detail" d="M 489.7 442.2 L 493.3 440.4 L 496.2 441.9 L 493.3 443.5 L 489.9 442.4 L 487 436.8 L 492.8 436.8 C 493.6 437.3 496.9 439.4 497.7 439.9"/>
  <path class="detail" d="M 502 477.3 C 501 477.7 498.4 479.2 496 479.6 C 493.5 479.9 490.1 479.9 487.4 479.6 C 484.8 479.2 482.1 478.6 480.3 477.6 C 478.4 476.5 476.9 474.2 476.2 473.5"/>
  <path class="detail" d="M 514.5 480.9 C 514.4 482.7 513.5 488.5 513.6 491.9 C 513.8 495.2 515 499.5 515.2 501.1"/>
  <path class="detail" d="M 444.9 476.2 C 447.7 479.1 455.9 487.4 461.7 493.7 C 467.5 500 473.5 506.9 479.6 513.8 C 485.7 520.7 495.1 531.6 498.2 535.1"/>
  <path class="detail" d="M 428.1 612.4 C 431.3 613.6 440.6 617.8 447.1 619.6 C 453.7 621.3 460.6 621.6 467.3 622.9 C 474 624.2 480.4 625.4 487.4 627.4 C 494.5 629.4 505.9 633.6 509.6 634.8"/>
  <path class="detail" d="M 493.7 530.6 C 491.5 534.2 485.1 544.3 480.7 551.9 C 476.3 559.6 471.4 569.5 467.3 576.6 C 463.2 583.7 457.9 591.5 456.1 594.5"/>
  <path class="hatch" d="M 427.8 613.1 L 429.8 613.9 L 432.7 615.1 L 436 616.5 L 439.7 617.9 L 443.4 619.3 L 446.9 620.3 L 450.3 621.1 L 453.6 621.7 L 457 622.2 L 460.4 622.6 L 463.8 623.1 L 467.1 623.7 L 470.5 624.3 L 473.8 625 L 477.1 625.7 L 480.4 626.4 L 483.8 627.2 L 487.2 628.2 L 491 629.3 L 495.3 630.7 L 499.5 632.1 L 503.5 633.5 L 506.9 634.7 L 509.4 635.5 M 427.2 614.6 L 429.2 615.4 L 432.1 616.6 L 435.5 618 L 439.2 619.4 L 442.9 620.7 L 446.5 621.8 L 449.9 622.6 L 453.4 623.3 L 456.8 623.7 L 460.2 624.2 L 463.5 624.7 L 466.9 625.2 L 470.2 625.9 L 473.5 626.5 L 476.7 627.2 L 480 627.9 L 483.4 628.8 L 486.8 629.7 L 490.6 630.8 L 494.8 632.2 L 499 633.6 L 503 635 L 506.4 636.2 L 508.9 637 M 426.6 616 L 428.7 616.9 L 431.5 618 L 434.9 619.4 L 438.6 620.9 L 442.4 622.2 L 446.1 623.4 L 449.6 624.2 L 453.1 624.8 L 456.6 625.3 L 460 625.7 L 463.3 626.2 L 466.6 626.8 L 469.9 627.4 L 473.1 628.1 L 476.4 628.7 L 479.7 629.5 L 483 630.3 L 486.4 631.2 L 490.1 632.3 L 494.3 633.7 L 498.5 635.1 L 502.5 636.5 L 505.9 637.7 L 508.3 638.5 M 497.1 545.2 C 495.1 549.3 489 562 485.2 569.8 C 481.4 577.7 475.9 588.5 474 592.2 M 460.6 493.7 C 459.1 498.5 454.2 513.1 451.6 522.8 C 449 532.5 446 547.1 444.9 551.9 M 435.2 558.6 C 435.1 563.1 434.8 577.3 434.1 585.5 C 433.4 593.7 431.5 604.2 431 607.9 M 447.1 578.8 C 446.4 583.3 443.4 601.2 442.6 605.7 M 440.4 686.3 C 440.6 681.5 441.6 667.7 441.5 657.2 C 441.4 646.7 440 629.2 439.7 623.6 M 478.5 688.6 C 478.7 683.3 479.9 667.5 480 657.2 C 480.2 646.9 479.7 632 479.6 627 M 445.6 687.2 C 445.7 682.2 446.6 668.1 446.4 657.2 C 446.3 646.3 445.1 627.7 444.9 621.8 M 484.1 689.2 C 484.3 683.9 485.1 667.4 485.2 657.2 C 485.3 647 484.6 632.9 484.5 628.1 M 526.2 449.6 C 526.3 450.6 526.1 454.9 527.1 456 C 528.1 457.2 531.2 456.6 532 456.7 M 526.9 455.8 C 526.9 456.8 526.4 460.8 527.3 461.9 C 528.2 462.9 531.4 462.1 532.2 462.1 M 520.1 456.9 C 520.9 457.4 523.5 458.6 524.6 459.4 C 525.8 460.2 526.7 461.3 527.1 461.6 M 495.6 532.1 L 498.1 540.9 M 490.4 526.2 L 497.9 552.3 M 485.2 520.2 L 499.5 570.1 M 480 514.3 L 504.4 599.4 M 480.7 529 L 507.1 621.1 M 481.9 545.4 L 504 622.3 M 483.1 561.8 L 500.8 623.3 M 484.3 578.2 L 497.6 624.3 M 485.5 594.3 L 494.3 625.3 M 486.4 609.7 L 491.1 626.3 M 501.6 496.4 L 504.4 506.1 M 498.9 496.9 L 503.6 513.1 M 497 500 L 502.8 520 M 495.6 504.6 L 500.4 521.5 M 494.1 509.2 L 497 519.3 M 430.5 543.5 L 434.2 564.6 M 427.8 546.5 L 433.9 581 M 426.4 556.6 L 433.3 595.4 M 429.7 593.2 L 431 600.5 M 461.8 436.7 L 463.8 444.5 M 457.5 431 L 462.7 451.6 M 455.9 436.2 L 461.5 458.6 M 454.3 441.4 L 460.3 465.1 M 452.8 446.6 L 458.2 468.4 M 451.6 453.3 L 456.2 471.7 M 450.7 461.3 L 454.1 475.1 M 502.3 457.3 L 504 473.2 M 499.8 454.8 L 502.1 477 M 497.5 454.7 L 500 478.1 M 495.3 454.6 L 497.8 478.9 M 493 454.5 L 495.6 479.5 M 490.9 456.1 L 493.4 479.2 M 489 459.3 L 491.1 478.9 M 487.1 462.5 L 488.8 478.6 M 485.4 468 L 486.5 478.3 M 501.6 457.8 L 502.6 457.8 M 499.6 458.7 L 502.5 458.7 M 500.4 459.6 L 502.4 459.6 M 501.6 460.5 L 502.3 460.5 M 507.8 634.2 L 509.3 641.5 M 504.1 633 L 509.4 658.1 M 500.4 631.7 L 511.5 684 M 496.7 630.5 L 508.6 686.6 M 493 629.3 L 505.4 687.5 M 489.3 628 L 502 688 M 487.4 635.5 L 498.6 688.1 M 487.4 651.7 L 495.2 688.3 M 488.6 673.2 L 491.8 688.5 M 523 465.9 L 524.2 470.2 M 520.8 466.3 L 524.4 478.7 M 520.5 473.5 L 524 485.5 M 520.1 480.1 L 523.3 491.4 M 519.5 486 L 522.7 497.4 M 517.9 488.6 L 521.4 500.8 M 509.4 634.8 L 508.5 644.9 M 510.5 634.8 L 511.9 644.4 M 510 634.8 L 510.1 646"/>
  <path class="hatch" d="M 443.1 698.6 L 486.9 698.6 M 422.7 700.8 L 507.4 700.8 M 416.5 703 L 513.6 703 M 418.1 705.2 L 512 705.2 M 430.2 707.4 L 499.9 707.4"/>
</svg>
